<svg width="1907" height="1557" xmlns="http://www.w3.org/2000/svg" xmlns:xlink="http://www.w3.org/1999/xlink" xml:space="preserve" overflow="hidden"><defs><clipPath id="clip0"><rect x="1319" y="459" width="1907" height="1557"/></clipPath><linearGradient x1="1421.5" y1="2015.5" x2="2978.5" y2="459.5" gradientUnits="userSpaceOnUse" spreadMethod="reflect" id="fill1"><stop offset="0" stop-color="#E2F0D9"/><stop offset="0.48" stop-color="#C5E0B4"/><stop offset="1" stop-color="#A9D18E"/></linearGradient><clipPath id="clip2"><rect x="2042" y="922" width="316" height="316"/></clipPath><clipPath id="clip3"><rect x="2042" y="922" width="316" height="316"/></clipPath><clipPath id="clip4"><rect x="2042" y="922" width="316" height="316"/></clipPath></defs><g clip-path="url(#clip0)" transform="translate(-1319 -459)"><path d="M1422 582.717C1422 514.39 1477.39 459 1545.72 459L2854.28 459C2922.61 459 2978 514.39 2978 582.717L2978 1892.28C2978 1960.61 2922.61 2016 2854.28 2016L1545.72 2016C1477.39 2016 1422 1960.61 1422 1892.28Z" fill="url(#fill1)" fill-rule="evenodd"/><text font-family="Red Rose,Red Rose_MSFontService,sans-serif" font-weight="400" font-size="220" transform="matrix(1 0 0 1 1550.31 1452)">Tools on API</text><text font-family="Red Rose,Red Rose_MSFontService,sans-serif" font-weight="400" font-size="220" transform="matrix(1 0 0 1 2849.69 1452)"> </text><g clip-path="url(#clip2)"><g clip-path="url(#clip3)"><g clip-path="url(#clip4)"><path d="M307.315 242.676 235.5 170.86C221.333 156.693 200.175 153.934 183.126 162.336L117.75 96.9598 117.75 58.875 39.25 0 0 39.25 58.875 117.75 96.9598 117.75 162.336 183.126C153.995 200.175 156.693 221.333 170.86 235.5L242.676 307.315C251.629 316.269 266.103 316.269 274.995 307.315L307.315 274.995C316.208 266.042 316.208 251.568 307.315 242.676ZM203.426 137.988C220.781 137.988 237.095 144.734 249.36 157L261.258 168.898C270.948 164.666 280.147 158.779 288.12 150.806 310.872 128.053 318.6 96.0399 311.363 66.9704 310.014 61.4508 303.084 59.5496 299.036 63.5973L253.408 109.225 211.766 102.295 204.836 60.6536 250.464 15.0254C254.512 10.9777 252.549 4.04766 246.969 2.63711 217.899-4.53828 185.886 3.18906 163.194 25.8805 145.716 43.359 137.498 66.4184 137.927 89.4165L188.277 139.767C193.245 138.602 198.397 137.988 203.426 137.988ZM139.706 188.277 104.932 153.504 11.4684 247.03C-3.86367 262.362-3.86367 287.2 11.4684 302.532 26.8004 317.864 51.6383 317.864 66.9704 302.532L142.772 226.73C138.111 214.526 136.7 201.218 139.706 188.277ZM39.25 289.469C31.1547 289.469 24.5313 282.845 24.5313 274.75 24.5313 266.594 31.0934 260.031 39.25 260.031 47.4067 260.031 53.9688 266.594 53.9688 274.75 53.9688 282.845 47.4067 289.469 39.25 289.469Z" transform="matrix(1 0 0 1.00318 2043 923)"/></g></g></g><text font-family="Red Rose Light,Red Rose Light_MSFontService,sans-serif" font-style="oblique" font-weight="700" font-size="527" transform="matrix(1 0 0 1 1635.79 1250)">&lt;    /&gt;</text><text font-family="Red Rose Light,Red Rose Light_MSFontService,sans-serif" font-style="oblique" font-weight="700" font-size="527" transform="matrix(1 0 0 1 2781.62 1250)"> </text></g></svg>